<svg width="4098" height="2562" viewBox="0 0 4098 2562" fill="none" xmlns="http://www.w3.org/2000/svg">
<path fill-rule="evenodd" clip-rule="evenodd" d="M4096.96 0.712158H1.04175V2560.62L1.39228 1276.68L55.6095 1257.72L98.8218 1251.13L147.058 1237.35L222.857 1233.9L296.359 1249.98L333.163 1262.27L392.314 1285.02L446.915 1275.92L519.716 1253.17L647.117 1225.87L724.468 1216.77L797.269 1207.67L879.17 1239.52L933.771 1257.72L992.922 1285.02L1038.42 1280.47L1079.37 1239.52L1124.87 1184.92L1160.2 1160.75L1197.06 1140.65L1240.62 1137.3L1274.13 1140.65L1321.05 1144L1361.26 1140.65L1398.12 1187.56L1431.63 1174.16L1464.62 1170.64L1480.96 1166.56L1491.17 1172.68L1516.69 1173.71L1536.09 1179.83L1557.54 1183.92L1574.89 1188L1596.34 1197.19L1619.82 1198.21L1633.09 1207.4L1658.62 1212.51L1681.08 1224.76L1711.71 1218.63L1745.41 1208.42L1782.16 1194.13L1808.71 1189.02L1845.47 1181.87L1895.5 1171.66L1929.19 1163.5L1952.68 1158.39L1960.85 1152.26L1981.27 1154.31L1993.52 1148.18H2036.4L2062.95 1155.33L2093.58 1170.64L2120.13 1185.96L2147.7 1202.3L2183.43 1222.72L2222.23 1242.12L2233.47 1250.28L2242.65 1240.07L2254.91 1242.12L2279.41 1244.16L2294.73 1237.01L2323.32 1228.84L2344.76 1216.59L2375.39 1214.55L2387.64 1212.51L2405 1215.57H2424.4L2450.95 1223.74L2469.33 1231.91L2482.6 1235.99L2508.13 1254.37L2529.57 1269.68L2551.01 1297.25L2560.2 1302.36L2583.68 1303.38L2602.06 1319.71L2677.78 1349.56L2704.78 1370.56L2731.85 1377.76L2752.46 1383.38L2765.56 1387.12L2804.89 1375.89L2849.84 1366.52L2883.55 1362.78H2932.24H2964.08L2965.95 1377.76L2999.67 1409.6L3025.88 1452.67L3050.23 1437.69L3072.7 1426.45L3121.4 1430.2C3127.02 1432.07 3140.13 1435.82 3147.62 1435.82H3183.2L3231.89 1418.96L3280.59 1407.72L3316.17 1396.49L3346.13 1389L3400.45 1394.61L3438.88 1406.66L3451.74 1392.52L3471.02 1380.95L3496.73 1362.95L3499.3 1350.09L3518.59 1356.52L3536.58 1350.09L3558.44 1347.52L3567.44 1338.52L3581.58 1344.95L3607.29 1351.38L3638.14 1361.66L3663.86 1356.52C3668.14 1355.24 3678.25 1352.66 3684.43 1352.66H3720.42L3744.85 1341.09L3757.7 1356.52L3770.56 1353.95L3798.84 1375.8L3825.84 1402.8L3861.83 1416.94L3881.12 1433.66C3885.83 1431.51 3897.32 1427.23 3905.54 1427.23C3913.77 1427.23 3927.83 1426.37 3933.83 1425.94L3967.25 1418.23L4003.25 1405.37L4035.39 1392.52L4040.53 1384.8L4080.38 1398.94C4081.95 1398.96 4085.28 1399.06 4086.02 1399.33C4086.76 1399.6 4089.52 1400.28 4090.81 1400.59L4096.96 1403.42V2560.62L4097.03 2560.62V1403.45L4096.96 1403.42V0.712158Z" fill="black"/>
<path d="M1.04175 0.712158V0.212158H0.541748V0.712158H1.04175ZM4096.96 0.712158H4097.46V0.212158H4096.96V0.712158ZM1.04175 2560.62H0.541748L1.54175 2560.62L1.04175 2560.62ZM1.39228 1276.68L1.22725 1276.21L0.89238 1276.32L0.892283 1276.68L1.39228 1276.68ZM55.6095 1257.72L55.5341 1257.23L55.4883 1257.23L55.4445 1257.25L55.6095 1257.72ZM98.8218 1251.13L98.8972 1251.62L98.9286 1251.62L98.9591 1251.61L98.8218 1251.13ZM147.058 1237.35L147.035 1236.85L146.977 1236.85L146.92 1236.87L147.058 1237.35ZM222.857 1233.9L222.964 1233.41L222.9 1233.4L222.834 1233.4L222.857 1233.9ZM296.359 1249.98L296.518 1249.51L296.492 1249.5L296.466 1249.49L296.359 1249.98ZM333.163 1262.27L333.343 1261.8L333.332 1261.8L333.322 1261.8L333.163 1262.27ZM392.314 1285.02L392.134 1285.49L392.262 1285.54L392.396 1285.51L392.314 1285.02ZM446.915 1275.92L446.997 1276.41L447.031 1276.41L447.064 1276.4L446.915 1275.92ZM519.716 1253.17L519.611 1252.68L519.588 1252.69L519.566 1252.69L519.716 1253.17ZM647.117 1225.87L647.059 1225.37L647.035 1225.38L647.012 1225.38L647.117 1225.87ZM724.468 1216.77L724.527 1217.27L724.53 1217.27L724.468 1216.77ZM797.269 1207.67L797.45 1207.2L797.333 1207.16L797.207 1207.17L797.269 1207.67ZM879.17 1239.52L878.989 1239.99L879 1239.99L879.012 1239.99L879.17 1239.52ZM933.771 1257.72L933.98 1257.27L933.955 1257.25L933.929 1257.25L933.771 1257.72ZM992.922 1285.02L992.712 1285.47L992.836 1285.53L992.971 1285.52L992.922 1285.02ZM1038.42 1280.47L1038.47 1280.97L1038.65 1280.95L1038.78 1280.82L1038.42 1280.47ZM1079.37 1239.52L1079.73 1239.87L1079.74 1239.86L1079.76 1239.84L1079.37 1239.52ZM1124.87 1184.92L1124.59 1184.51L1124.53 1184.55L1124.49 1184.6L1124.87 1184.92ZM1160.2 1160.75L1159.96 1160.31L1159.94 1160.33L1159.91 1160.34L1160.2 1160.75ZM1197.06 1140.65L1197.02 1140.15L1196.91 1140.16L1196.82 1140.21L1197.06 1140.65ZM1240.62 1137.3L1240.67 1136.8L1240.63 1136.79L1240.58 1136.8L1240.62 1137.3ZM1274.13 1140.65L1274.08 1141.14L1274.09 1141.15L1274.1 1141.15L1274.13 1140.65ZM1321.05 1144L1321.01 1144.5L1321.05 1144.5L1321.09 1144.5L1321.05 1144ZM1361.26 1140.65L1361.65 1140.34L1361.49 1140.13L1361.22 1140.15L1361.26 1140.65ZM1398.12 1187.56L1397.73 1187.87L1397.96 1188.17L1398.31 1188.03L1398.12 1187.56ZM1431.63 1174.16L1431.58 1173.66L1431.51 1173.67L1431.45 1173.69L1431.63 1174.16ZM1464.62 1170.64L1464.67 1171.14L1464.71 1171.14L1464.74 1171.13L1464.62 1170.64ZM1480.96 1166.56L1481.21 1166.13L1481.04 1166.02L1480.84 1166.07L1480.96 1166.56ZM1491.17 1172.68L1490.91 1173.11L1491.02 1173.18L1491.15 1173.18L1491.17 1172.68ZM1516.69 1173.71L1516.84 1173.23L1516.78 1173.21L1516.71 1173.21L1516.69 1173.71ZM1536.09 1179.83L1535.94 1180.31L1535.97 1180.32L1536 1180.32L1536.09 1179.83ZM1557.54 1183.92L1557.65 1183.43L1557.64 1183.43L1557.63 1183.43L1557.54 1183.92ZM1574.89 1188L1575.09 1187.54L1575.05 1187.52L1575.01 1187.51L1574.89 1188ZM1596.34 1197.19L1596.14 1197.65L1596.22 1197.69L1596.31 1197.69L1596.34 1197.19ZM1619.82 1198.21L1620.1 1197.8L1619.99 1197.72L1619.84 1197.71L1619.82 1198.21ZM1633.09 1207.4L1632.81 1207.81L1632.89 1207.87L1632.99 1207.89L1633.09 1207.4ZM1658.62 1212.51L1658.86 1212.07L1658.79 1212.03L1658.72 1212.02L1658.62 1212.51ZM1681.08 1224.76L1680.84 1225.2L1681 1225.28L1681.18 1225.25L1681.08 1224.76ZM1711.71 1218.63L1711.81 1219.12L1711.83 1219.12L1711.86 1219.11L1711.71 1218.63ZM1745.41 1208.42L1745.55 1208.9L1745.57 1208.89L1745.59 1208.89L1745.41 1208.42ZM1782.16 1194.13L1782.07 1193.64L1782.03 1193.64L1781.98 1193.66L1782.16 1194.13ZM1808.71 1189.02L1808.81 1189.51L1808.81 1189.51L1808.71 1189.02ZM1845.47 1181.87L1845.56 1182.36L1845.57 1182.36L1845.47 1181.87ZM1895.5 1171.66L1895.6 1172.15L1895.61 1172.15L1895.62 1172.15L1895.5 1171.66ZM1929.19 1163.5L1929.09 1163.01L1929.08 1163.01L1929.19 1163.5ZM1952.68 1158.39L1952.78 1158.88L1952.89 1158.86L1952.98 1158.79L1952.68 1158.39ZM1960.85 1152.26L1960.9 1151.77L1960.7 1151.75L1960.55 1151.86L1960.85 1152.26ZM1981.27 1154.31L1981.22 1154.8L1981.36 1154.82L1981.49 1154.75L1981.27 1154.31ZM1993.52 1148.18V1147.68H1993.4L1993.3 1147.73L1993.52 1148.18ZM2036.4 1148.18L2036.53 1147.7L2036.47 1147.68H2036.4V1148.18ZM2062.95 1155.33L2063.18 1154.88L2063.13 1154.86L2063.08 1154.84L2062.95 1155.33ZM2093.58 1170.64L2093.83 1170.21L2093.82 1170.2L2093.81 1170.2L2093.58 1170.64ZM2120.13 1185.96L2120.38 1185.53L2120.38 1185.53L2120.13 1185.96ZM2147.7 1202.3L2147.44 1202.73L2147.45 1202.73L2147.7 1202.3ZM2183.43 1222.72L2183.19 1223.15L2183.2 1223.16L2183.21 1223.16L2183.43 1222.72ZM2222.23 1242.12L2222.53 1241.71L2222.49 1241.69L2222.46 1241.67L2222.23 1242.12ZM2233.47 1250.28L2233.17 1250.69L2233.54 1250.95L2233.84 1250.62L2233.47 1250.28ZM2242.65 1240.07L2242.74 1239.58L2242.47 1239.54L2242.28 1239.74L2242.65 1240.07ZM2254.91 1242.12L2254.82 1242.61L2254.84 1242.61L2254.87 1242.61L2254.91 1242.12ZM2279.41 1244.16L2279.37 1244.66L2279.5 1244.67L2279.62 1244.61L2279.41 1244.16ZM2294.73 1237.01L2294.59 1236.53L2294.55 1236.54L2294.52 1236.56L2294.73 1237.01ZM2323.32 1228.84L2323.45 1229.32L2323.51 1229.31L2323.56 1229.28L2323.32 1228.84ZM2344.76 1216.59L2344.73 1216.09L2344.61 1216.1L2344.51 1216.16L2344.76 1216.59ZM2375.39 1214.55L2375.42 1215.05L2375.45 1215.04L2375.47 1215.04L2375.39 1214.55ZM2387.64 1212.51L2387.73 1212.01L2387.65 1212L2387.56 1212.01L2387.64 1212.51ZM2405 1215.57L2404.91 1216.06L2404.96 1216.07H2405V1215.57ZM2424.4 1215.57L2424.55 1215.09L2424.48 1215.07H2424.4V1215.57ZM2450.95 1223.74L2451.15 1223.28L2451.12 1223.27L2451.09 1223.26L2450.95 1223.74ZM2469.33 1231.91L2469.12 1232.36L2469.15 1232.37L2469.18 1232.38L2469.33 1231.91ZM2482.6 1235.99L2482.89 1235.58L2482.82 1235.54L2482.75 1235.51L2482.6 1235.99ZM2508.13 1254.37L2507.83 1254.77L2507.83 1254.78L2508.13 1254.37ZM2529.57 1269.68L2529.96 1269.38L2529.92 1269.32L2529.86 1269.28L2529.57 1269.68ZM2551.01 1297.25L2550.61 1297.56L2550.68 1297.64L2550.77 1297.69L2551.01 1297.25ZM2560.2 1302.36L2559.96 1302.79L2560.06 1302.85L2560.18 1302.86L2560.2 1302.36ZM2583.68 1303.38L2584.01 1303L2583.88 1302.89L2583.7 1302.88L2583.68 1303.38ZM2602.06 1319.71L2601.73 1320.09L2601.8 1320.15L2601.88 1320.18L2602.06 1319.71ZM2677.78 1349.56L2678.08 1349.16L2678.03 1349.12L2677.96 1349.09L2677.78 1349.56ZM2704.78 1370.56L2704.47 1370.96L2704.55 1371.02L2704.65 1371.04L2704.78 1370.56ZM2731.85 1377.76L2731.99 1377.28L2731.98 1377.28L2731.85 1377.76ZM2752.46 1383.38L2752.59 1382.9L2752.59 1382.89L2752.46 1383.38ZM2765.56 1387.12L2765.43 1387.6L2765.56 1387.64L2765.7 1387.6L2765.56 1387.12ZM2804.89 1375.89L2804.79 1375.4L2804.77 1375.4L2804.76 1375.4L2804.89 1375.89ZM2849.84 1366.52L2849.79 1366.02L2849.76 1366.03L2849.74 1366.03L2849.84 1366.52ZM2883.55 1362.78V1362.28H2883.52L2883.5 1362.28L2883.55 1362.78ZM2964.08 1362.78L2964.58 1362.71L2964.52 1362.28H2964.08V1362.78ZM2965.95 1377.76L2965.46 1377.82L2965.48 1378L2965.61 1378.12L2965.95 1377.76ZM2999.67 1409.6L3000.09 1409.34L3000.06 1409.28L3000.01 1409.23L2999.67 1409.6ZM3025.88 1452.67L3025.46 1452.93L3025.72 1453.36L3026.15 1453.1L3025.88 1452.67ZM3050.23 1437.69L3050.01 1437.24L3049.99 1437.25L3049.97 1437.26L3050.23 1437.69ZM3072.7 1426.45L3072.74 1425.95L3072.6 1425.94L3072.48 1426L3072.7 1426.45ZM3121.4 1430.2L3121.56 1429.72L3121.5 1429.7L3121.44 1429.7L3121.4 1430.2ZM3183.2 1435.82V1436.32H3183.28L3183.36 1436.29L3183.2 1435.82ZM3231.89 1418.96L3231.78 1418.47L3231.75 1418.48L3231.73 1418.49L3231.89 1418.96ZM3280.59 1407.72L3280.7 1408.21L3280.72 1408.21L3280.74 1408.2L3280.59 1407.72ZM3316.17 1396.49L3316.05 1396L3316.03 1396.01L3316.02 1396.01L3316.17 1396.49ZM3346.13 1389L3346.19 1388.5L3346.1 1388.49L3346.01 1388.51L3346.13 1389ZM3400.45 1394.61L3400.59 1394.14L3400.55 1394.12L3400.5 1394.12L3400.45 1394.61ZM3438.88 1406.66L3438.73 1407.14L3439.04 1407.23L3439.25 1406.99L3438.88 1406.66ZM3451.74 1392.52L3451.48 1392.09L3451.42 1392.13L3451.37 1392.18L3451.74 1392.52ZM3471.02 1380.95L3471.28 1381.38L3471.29 1381.37L3471.31 1381.36L3471.02 1380.95ZM3496.73 1362.95L3497.02 1363.36L3497.18 1363.24L3497.22 1363.05L3496.73 1362.95ZM3499.3 1350.09L3499.46 1349.62L3498.92 1349.44L3498.81 1349.99L3499.3 1350.09ZM3518.59 1356.52L3518.43 1357L3518.59 1357.05L3518.75 1356.99L3518.59 1356.52ZM3536.58 1350.09L3536.53 1349.6L3536.47 1349.6L3536.42 1349.62L3536.58 1350.09ZM3558.44 1347.52L3558.5 1348.02L3558.67 1348L3558.79 1347.88L3558.44 1347.52ZM3567.44 1338.52L3567.64 1338.07L3567.33 1337.92L3567.08 1338.17L3567.44 1338.52ZM3581.58 1344.95L3581.37 1345.41L3581.41 1345.42L3581.46 1345.44L3581.58 1344.95ZM3607.29 1351.38L3607.45 1350.9L3607.43 1350.9L3607.41 1350.89L3607.29 1351.38ZM3638.14 1361.66L3637.99 1362.14L3638.11 1362.18L3638.24 1362.15L3638.14 1361.66ZM3663.86 1356.52L3663.95 1357.01L3663.98 1357.01L3664 1357L3663.86 1356.52ZM3720.42 1352.66V1353.16H3720.53L3720.64 1353.12L3720.42 1352.66ZM3744.85 1341.09L3745.23 1340.77L3744.98 1340.48L3744.63 1340.64L3744.85 1341.09ZM3757.7 1356.52L3757.32 1356.84L3757.51 1357.07L3757.8 1357.01L3757.7 1356.52ZM3770.56 1353.95L3770.86 1353.55L3770.68 1353.41L3770.46 1353.46L3770.56 1353.95ZM3798.84 1375.8L3799.19 1375.45L3799.17 1375.43L3799.15 1375.41L3798.84 1375.8ZM3825.84 1402.8L3825.48 1403.16L3825.56 1403.23L3825.66 1403.27L3825.84 1402.8ZM3861.83 1416.94L3862.16 1416.57L3862.1 1416.51L3862.02 1416.48L3861.83 1416.94ZM3881.12 1433.66L3880.79 1434.03L3881.03 1434.24L3881.33 1434.11L3881.12 1433.66ZM3933.83 1425.94L3933.86 1426.44L3933.9 1426.44L3933.94 1426.43L3933.83 1425.94ZM3967.25 1418.23L3967.36 1418.72L3967.39 1418.71L3967.42 1418.7L3967.25 1418.23ZM4003.25 1405.37L4003.42 1405.84L4003.42 1405.84L4003.43 1405.84L4003.25 1405.37ZM4035.39 1392.52L4035.57 1392.98L4035.72 1392.92L4035.8 1392.79L4035.39 1392.52ZM4040.53 1384.8L4040.7 1384.33L4040.33 1384.2L4040.11 1384.53L4040.53 1384.8ZM4080.38 1398.94L4080.22 1399.42L4080.29 1399.44L4080.38 1399.44L4080.38 1398.94ZM4090.81 1400.59L4091.02 1400.13L4090.97 1400.11L4090.92 1400.1L4090.81 1400.59ZM4096.96 2560.62H4096.46V2561.12L4096.97 2561.12L4096.96 2560.62ZM4097.03 2560.62L4097.03 2561.12L4097.53 2561.11V2560.62H4097.03ZM4097.03 1403.45H4097.53V1403.12L4097.23 1402.99L4097.03 1403.45ZM1.04175 1.21216H4096.96V0.212158H1.04175V1.21216ZM1.54175 2560.62V0.712158H0.541748V2560.62H1.54175ZM0.892283 1276.68L0.541748 2560.62L1.54175 2560.62L1.89228 1276.68L0.892283 1276.68ZM55.4445 1257.25L1.22725 1276.21L1.55732 1277.15L55.7746 1258.19L55.4445 1257.25ZM98.7464 1250.63L55.5341 1257.23L55.685 1258.21L98.8972 1251.62L98.7464 1250.63ZM146.92 1236.87L98.6844 1250.65L98.9591 1251.61L147.195 1237.83L146.92 1236.87ZM222.834 1233.4L147.035 1236.85L147.08 1237.85L222.88 1234.4L222.834 1233.4ZM296.466 1249.49L222.964 1233.41L222.75 1234.39L296.252 1250.47L296.466 1249.49ZM333.322 1261.8L296.518 1249.51L296.201 1250.45L333.005 1262.74L333.322 1261.8ZM392.493 1284.55L333.343 1261.8L332.984 1262.74L392.134 1285.49L392.493 1284.55ZM446.832 1275.43L392.232 1284.53L392.396 1285.51L446.997 1276.41L446.832 1275.43ZM519.566 1252.69L446.766 1275.44L447.064 1276.4L519.865 1253.65L519.566 1252.69ZM647.012 1225.38L519.611 1252.68L519.82 1253.66L647.222 1226.36L647.012 1225.38ZM724.41 1216.27L647.059 1225.37L647.176 1226.37L724.527 1217.27L724.41 1216.27ZM797.207 1207.17L724.406 1216.27L724.53 1217.27L797.331 1208.17L797.207 1207.17ZM879.351 1239.05L797.45 1207.2L797.088 1208.14L878.989 1239.99L879.351 1239.05ZM933.929 1257.25L879.328 1239.05L879.012 1239.99L933.613 1258.19L933.929 1257.25ZM993.131 1284.57L933.98 1257.27L933.561 1258.17L992.712 1285.47L993.131 1284.57ZM1038.37 1279.97L992.872 1284.52L992.971 1285.52L1038.47 1280.97L1038.37 1279.97ZM1079.02 1239.17L1038.07 1280.12L1038.78 1280.82L1079.73 1239.87L1079.02 1239.17ZM1124.49 1184.6L1078.99 1239.2L1079.76 1239.84L1125.26 1185.24L1124.49 1184.6ZM1159.91 1160.34L1124.59 1184.51L1125.16 1185.33L1160.48 1161.17L1159.91 1160.34ZM1196.82 1140.21L1159.96 1160.31L1160.44 1161.19L1197.3 1141.09L1196.82 1140.21ZM1240.58 1136.8L1197.02 1140.15L1197.1 1141.15L1240.66 1137.79L1240.58 1136.8ZM1274.18 1140.15L1240.67 1136.8L1240.57 1137.79L1274.08 1141.14L1274.18 1140.15ZM1321.08 1143.5L1274.17 1140.15L1274.1 1141.15L1321.01 1144.5L1321.08 1143.5ZM1361.22 1140.15L1321.01 1143.5L1321.09 1144.5L1361.3 1141.15L1361.22 1140.15ZM1398.52 1187.25L1361.65 1140.34L1360.87 1140.96L1397.73 1187.87L1398.52 1187.25ZM1431.45 1173.69L1397.94 1187.1L1398.31 1188.03L1431.82 1174.62L1431.45 1173.69ZM1464.57 1170.15L1431.58 1173.66L1431.69 1174.66L1464.67 1171.14L1464.57 1170.15ZM1480.84 1166.07L1464.5 1170.16L1464.74 1171.13L1481.08 1167.04L1480.84 1166.07ZM1491.43 1172.26L1481.21 1166.13L1480.7 1166.99L1490.91 1173.11L1491.43 1172.26ZM1516.71 1173.21L1491.19 1172.19L1491.15 1173.18L1516.67 1174.21L1516.71 1173.21ZM1536.24 1179.36L1516.84 1173.23L1516.54 1174.18L1535.94 1180.31L1536.24 1179.36ZM1557.63 1183.43L1536.19 1179.34L1536 1180.32L1557.44 1184.41L1557.63 1183.43ZM1575.01 1187.51L1557.65 1183.43L1557.42 1184.4L1574.78 1188.49L1575.01 1187.51ZM1596.53 1196.73L1575.09 1187.54L1574.7 1188.46L1596.14 1197.65L1596.53 1196.73ZM1619.84 1197.71L1596.36 1196.69L1596.31 1197.69L1619.8 1198.71L1619.84 1197.71ZM1633.38 1206.99L1620.1 1197.8L1619.53 1198.62L1632.81 1207.81L1633.38 1206.99ZM1658.72 1212.02L1633.19 1206.91L1632.99 1207.89L1658.52 1213L1658.72 1212.02ZM1681.32 1224.32L1658.86 1212.07L1658.38 1212.94L1680.84 1225.2L1681.32 1224.32ZM1711.61 1218.14L1680.98 1224.27L1681.18 1225.25L1711.81 1219.12L1711.61 1218.14ZM1745.26 1207.94L1711.57 1218.15L1711.86 1219.11L1745.55 1208.9L1745.26 1207.94ZM1781.98 1193.66L1745.23 1207.96L1745.59 1208.89L1782.35 1194.59L1781.98 1193.66ZM1808.62 1188.53L1782.07 1193.64L1782.26 1194.62L1808.81 1189.51L1808.62 1188.53ZM1845.37 1181.38L1808.62 1188.53L1808.81 1189.51L1845.56 1182.36L1845.37 1181.38ZM1895.4 1171.17L1845.37 1181.38L1845.57 1182.36L1895.6 1172.15L1895.4 1171.17ZM1929.08 1163.01L1895.38 1171.18L1895.62 1172.15L1929.31 1163.98L1929.08 1163.01ZM1952.57 1157.9L1929.09 1163.01L1929.3 1163.98L1952.78 1158.88L1952.57 1157.9ZM1960.55 1151.86L1952.38 1157.99L1952.98 1158.79L1961.15 1152.66L1960.55 1151.86ZM1981.32 1153.81L1960.9 1151.77L1960.8 1152.76L1981.22 1154.8L1981.32 1153.81ZM1993.3 1147.73L1981.04 1153.86L1981.49 1154.75L1993.74 1148.63L1993.3 1147.73ZM2036.4 1147.68H1993.52V1148.68H2036.4V1147.68ZM2063.08 1154.84L2036.53 1147.7L2036.27 1148.66L2062.82 1155.81L2063.08 1154.84ZM2093.81 1170.2L2063.18 1154.88L2062.73 1155.77L2093.36 1171.09L2093.81 1170.2ZM2120.38 1185.53L2093.83 1170.21L2093.33 1171.08L2119.88 1186.39L2120.38 1185.53ZM2147.95 1201.86L2120.38 1185.53L2119.87 1186.39L2147.44 1202.73L2147.95 1201.86ZM2183.68 1222.28L2147.95 1201.86L2147.45 1202.73L2183.19 1223.15L2183.68 1222.28ZM2222.46 1241.67L2183.66 1222.27L2183.21 1223.16L2222.01 1242.56L2222.46 1241.67ZM2233.76 1249.88L2222.53 1241.71L2221.94 1242.52L2233.17 1250.69L2233.76 1249.88ZM2242.28 1239.74L2233.09 1249.95L2233.84 1250.62L2243.03 1240.41L2242.28 1239.74ZM2254.99 1241.62L2242.74 1239.58L2242.57 1240.57L2254.82 1242.61L2254.99 1241.62ZM2279.45 1243.66L2254.95 1241.62L2254.87 1242.61L2279.37 1244.66L2279.45 1243.66ZM2294.52 1236.56L2279.2 1243.7L2279.62 1244.61L2294.94 1237.46L2294.52 1236.56ZM2323.18 1228.36L2294.59 1236.53L2294.87 1237.49L2323.45 1229.32L2323.18 1228.36ZM2344.51 1216.16L2323.07 1228.41L2323.56 1229.28L2345.01 1217.02L2344.51 1216.16ZM2375.36 1214.05L2344.73 1216.09L2344.79 1217.09L2375.42 1215.05L2375.36 1214.05ZM2387.56 1212.01L2375.31 1214.05L2375.47 1215.04L2387.72 1213L2387.56 1212.01ZM2405.09 1215.08L2387.73 1212.01L2387.56 1213L2404.91 1216.06L2405.09 1215.08ZM2424.4 1215.07H2405V1216.07H2424.4V1215.07ZM2451.09 1223.26L2424.55 1215.09L2424.25 1216.05L2450.8 1224.21L2451.09 1223.26ZM2469.53 1231.45L2451.15 1223.28L2450.74 1224.19L2469.12 1232.36L2469.53 1231.45ZM2482.75 1235.51L2469.47 1231.43L2469.18 1232.38L2482.45 1236.47L2482.75 1235.51ZM2508.42 1253.96L2482.89 1235.58L2482.31 1236.4L2507.83 1254.77L2508.42 1253.96ZM2529.86 1269.28L2508.42 1253.96L2507.83 1254.78L2529.28 1270.09L2529.86 1269.28ZM2551.4 1296.94L2529.96 1269.38L2529.17 1269.99L2550.61 1297.56L2551.4 1296.94ZM2560.44 1301.92L2551.25 1296.81L2550.77 1297.69L2559.96 1302.79L2560.44 1301.92ZM2583.7 1302.88L2560.22 1301.86L2560.18 1302.86L2583.66 1303.88L2583.7 1302.88ZM2602.39 1319.34L2584.01 1303L2583.35 1303.75L2601.73 1320.09L2602.39 1319.34ZM2677.96 1349.09L2602.24 1319.25L2601.88 1320.18L2677.59 1350.02L2677.96 1349.09ZM2705.09 1370.17L2678.08 1349.16L2677.47 1349.95L2704.47 1370.96L2705.09 1370.17ZM2731.98 1377.28L2704.91 1370.08L2704.65 1371.04L2731.73 1378.24L2731.98 1377.28ZM2752.59 1382.89L2731.99 1377.28L2731.72 1378.24L2752.32 1383.86L2752.59 1382.89ZM2765.7 1386.64L2752.59 1382.9L2752.32 1383.86L2765.43 1387.6L2765.7 1386.64ZM2804.76 1375.4L2765.43 1386.64L2765.7 1387.6L2805.03 1376.37L2804.76 1375.4ZM2849.74 1366.03L2804.79 1375.4L2805 1376.38L2849.94 1367.01L2849.74 1366.03ZM2883.5 1362.28L2849.79 1366.02L2849.9 1367.02L2883.61 1363.27L2883.5 1362.28ZM2932.24 1362.28H2883.55V1363.28H2932.24V1362.28ZM2964.08 1362.28H2932.24V1363.28H2964.08V1362.28ZM2966.45 1377.7L2964.58 1362.71L2963.59 1362.84L2965.46 1377.82L2966.45 1377.7ZM3000.01 1409.23L2966.3 1377.39L2965.61 1378.12L2999.32 1409.96L3000.01 1409.23ZM3026.31 1452.41L3000.09 1409.34L2999.24 1409.86L3025.46 1452.93L3026.31 1452.41ZM3049.97 1437.26L3025.62 1452.24L3026.15 1453.1L3050.49 1438.11L3049.97 1437.26ZM3072.48 1426L3050.01 1437.24L3050.45 1438.14L3072.93 1426.9L3072.48 1426ZM3121.44 1429.7L3072.74 1425.95L3072.67 1426.95L3121.36 1430.7L3121.44 1429.7ZM3147.62 1435.32C3143.93 1435.32 3138.83 1434.39 3133.92 1433.22C3129.02 1432.06 3124.35 1430.65 3121.56 1429.72L3121.24 1430.67C3124.06 1431.61 3128.76 1433.02 3133.69 1434.19C3138.61 1435.37 3143.81 1436.32 3147.62 1436.32V1435.32ZM3183.2 1435.32H3147.62V1436.32H3183.2V1435.32ZM3231.73 1418.49L3183.04 1435.34L3183.36 1436.29L3232.06 1419.43L3231.73 1418.49ZM3280.47 1407.24L3231.78 1418.47L3232.01 1419.45L3280.7 1408.21L3280.47 1407.24ZM3316.02 1396.01L3280.44 1407.25L3280.74 1408.2L3316.32 1396.96L3316.02 1396.01ZM3346.01 1388.51L3316.05 1396L3316.29 1396.97L3346.26 1389.48L3346.01 1388.51ZM3400.5 1394.12L3346.19 1388.5L3346.08 1389.49L3400.39 1395.11L3400.5 1394.12ZM3439.03 1406.18L3400.59 1394.14L3400.3 1395.09L3438.73 1407.14L3439.03 1406.18ZM3451.37 1392.18L3438.51 1406.32L3439.25 1406.99L3452.11 1392.85L3451.37 1392.18ZM3470.76 1380.52L3451.48 1392.09L3451.99 1392.95L3471.28 1381.38L3470.76 1380.52ZM3496.44 1362.54L3470.73 1380.54L3471.31 1381.36L3497.02 1363.36L3496.44 1362.54ZM3498.81 1349.99L3496.24 1362.85L3497.22 1363.05L3499.79 1350.19L3498.81 1349.99ZM3518.74 1356.05L3499.46 1349.62L3499.14 1350.57L3518.43 1357L3518.74 1356.05ZM3536.42 1349.62L3518.42 1356.05L3518.75 1356.99L3536.75 1350.56L3536.42 1349.62ZM3558.38 1347.03L3536.53 1349.6L3536.64 1350.59L3558.5 1348.02L3558.38 1347.03ZM3567.08 1338.17L3558.08 1347.17L3558.79 1347.88L3567.79 1338.88L3567.08 1338.17ZM3581.79 1344.5L3567.64 1338.07L3567.23 1338.98L3581.37 1345.41L3581.79 1344.5ZM3607.41 1350.89L3581.7 1344.47L3581.46 1345.44L3607.17 1351.86L3607.41 1350.89ZM3638.3 1361.19L3607.45 1350.9L3607.13 1351.85L3637.99 1362.14L3638.3 1361.19ZM3663.76 1356.03L3638.05 1361.17L3638.24 1362.15L3663.95 1357.01L3663.76 1356.03ZM3684.43 1352.16C3678.17 1352.16 3668 1354.76 3663.71 1356.04L3664 1357C3668.29 1355.71 3678.34 1353.16 3684.43 1353.16V1352.16ZM3720.42 1352.16H3684.43V1353.16H3720.42V1352.16ZM3744.63 1340.64L3720.21 1352.21L3720.64 1353.12L3745.06 1341.55L3744.63 1340.64ZM3758.09 1356.2L3745.23 1340.77L3744.46 1341.41L3757.32 1356.84L3758.09 1356.2ZM3770.46 1353.46L3757.6 1356.03L3757.8 1357.01L3770.66 1354.44L3770.46 1353.46ZM3799.15 1375.41L3770.86 1353.55L3770.25 1354.35L3798.54 1376.2L3799.15 1375.41ZM3826.19 1402.45L3799.19 1375.45L3798.49 1376.16L3825.48 1403.16L3826.19 1402.45ZM3862.02 1416.48L3826.02 1402.34L3825.66 1403.27L3861.65 1417.41L3862.02 1416.48ZM3881.45 1433.28L3862.16 1416.57L3861.51 1417.32L3880.79 1434.03L3881.45 1433.28ZM3905.54 1426.73C3901.36 1426.73 3896.38 1427.81 3891.87 1429.16C3887.36 1430.5 3883.29 1432.12 3880.91 1433.2L3881.33 1434.11C3883.66 1433.05 3887.69 1431.45 3892.16 1430.12C3896.63 1428.78 3901.5 1427.73 3905.54 1427.73V1426.73ZM3933.79 1425.44C3927.79 1425.87 3913.75 1426.73 3905.54 1426.73V1427.73C3913.79 1427.73 3927.86 1426.87 3933.86 1426.44L3933.79 1425.44ZM3967.14 1417.74L3933.71 1425.45L3933.94 1426.43L3967.36 1418.72L3967.14 1417.74ZM4003.08 1404.9L3967.08 1417.76L3967.42 1418.7L4003.42 1405.84L4003.08 1404.9ZM4035.2 1392.05L4003.06 1404.91L4003.43 1405.84L4035.57 1392.98L4035.2 1392.05ZM4040.11 1384.53L4034.97 1392.24L4035.8 1392.79L4040.95 1385.08L4040.11 1384.53ZM4080.55 1398.47L4040.7 1384.33L4040.36 1385.27L4080.22 1399.42L4080.55 1398.47ZM4086.19 1398.86C4085.94 1398.77 4085.53 1398.71 4085.1 1398.66C4084.65 1398.61 4084.1 1398.57 4083.54 1398.54C4082.41 1398.48 4081.18 1398.45 4080.39 1398.44L4080.38 1399.44C4081.16 1399.45 4082.37 1399.48 4083.49 1399.54C4084.04 1399.57 4084.57 1399.61 4084.99 1399.65C4085.44 1399.7 4085.73 1399.76 4085.85 1399.8L4086.19 1398.86ZM4090.92 1400.1C4089.62 1399.79 4086.9 1399.12 4086.19 1398.86L4085.85 1399.8C4086.62 1400.08 4089.42 1400.77 4090.69 1401.08L4090.92 1400.1ZM4097.17 1402.96L4091.02 1400.13L4090.6 1401.04L4096.75 1403.87L4097.17 1402.96ZM4096.46 1403.42V2560.62H4097.46V1403.42H4096.46ZM4096.97 2561.12L4097.03 2561.12L4097.02 2560.12L4096.96 2560.12L4096.97 2561.12ZM4097.53 2560.62V1403.45H4096.53V2560.62H4097.53ZM4097.23 1402.99L4097.17 1402.96L4096.75 1403.87L4096.82 1403.9L4097.23 1402.99ZM4096.46 0.712158V1403.42H4097.46V0.712158H4096.46Z" fill="white"/>
</svg>
